<mxfile host="app.diagrams.net" modified="2023-04-01T08:30:08.852Z" agent="Mozilla/5.0 (Windows NT 10.0; Win64; x64) AppleWebKit/537.36 (KHTML, like Gecko) Chrome/111.0.0.0 Safari/537.36" etag="OCLbtcT0OP6KLax2teFQ" version="21.1.2" type="github">
  <diagram id="C5RBs43oDa-KdzZeNtuy" name="Page-1">
    <mxGraphModel dx="2620" dy="950" grid="1" gridSize="10" guides="1" tooltips="1" connect="1" arrows="1" fold="1" page="1" pageScale="1" pageWidth="827" pageHeight="1169" math="0" shadow="0">
      <root>
        <mxCell id="WIyWlLk6GJQsqaUBKTNV-0" />
        <mxCell id="WIyWlLk6GJQsqaUBKTNV-1" parent="WIyWlLk6GJQsqaUBKTNV-0" />
        <mxCell id="wC1FnH_8r3S7olkzpAsl-23" style="edgeStyle=orthogonalEdgeStyle;rounded=0;orthogonalLoop=1;jettySize=auto;html=1;entryX=0.5;entryY=0;entryDx=0;entryDy=0;" edge="1" parent="WIyWlLk6GJQsqaUBKTNV-1" source="wC1FnH_8r3S7olkzpAsl-2" target="wC1FnH_8r3S7olkzpAsl-21">
          <mxGeometry relative="1" as="geometry" />
        </mxCell>
        <mxCell id="wC1FnH_8r3S7olkzpAsl-2" value="Home page" style="rounded=1;whiteSpace=wrap;html=1;absoluteArcSize=1;arcSize=14;strokeWidth=2;fontFamily=Garamond;fontStyle=0;verticalAlign=middle;fontSize=20;" vertex="1" parent="WIyWlLk6GJQsqaUBKTNV-1">
          <mxGeometry x="-88" y="40" width="176" height="40" as="geometry" />
        </mxCell>
        <mxCell id="wC1FnH_8r3S7olkzpAsl-25" value="" style="edgeStyle=orthogonalEdgeStyle;rounded=0;orthogonalLoop=1;jettySize=auto;html=1;" edge="1" parent="WIyWlLk6GJQsqaUBKTNV-1" source="wC1FnH_8r3S7olkzpAsl-21" target="wC1FnH_8r3S7olkzpAsl-24">
          <mxGeometry relative="1" as="geometry" />
        </mxCell>
        <mxCell id="wC1FnH_8r3S7olkzpAsl-21" value="Login" style="whiteSpace=wrap;html=1;fontSize=20;fontFamily=Garamond;rounded=1;arcSize=14;strokeWidth=2;fontStyle=0;" vertex="1" parent="WIyWlLk6GJQsqaUBKTNV-1">
          <mxGeometry x="-60" y="110" width="120" height="60" as="geometry" />
        </mxCell>
        <mxCell id="wC1FnH_8r3S7olkzpAsl-27" value="" style="edgeStyle=orthogonalEdgeStyle;rounded=0;orthogonalLoop=1;jettySize=auto;html=1;" edge="1" parent="WIyWlLk6GJQsqaUBKTNV-1" source="wC1FnH_8r3S7olkzpAsl-24" target="wC1FnH_8r3S7olkzpAsl-26">
          <mxGeometry relative="1" as="geometry" />
        </mxCell>
        <mxCell id="wC1FnH_8r3S7olkzpAsl-29" value="" style="edgeStyle=orthogonalEdgeStyle;rounded=0;orthogonalLoop=1;jettySize=auto;html=1;" edge="1" parent="WIyWlLk6GJQsqaUBKTNV-1" source="wC1FnH_8r3S7olkzpAsl-24" target="wC1FnH_8r3S7olkzpAsl-28">
          <mxGeometry relative="1" as="geometry" />
        </mxCell>
        <mxCell id="wC1FnH_8r3S7olkzpAsl-24" value="Already a user?" style="rhombus;whiteSpace=wrap;html=1;fontSize=20;fontFamily=Garamond;rounded=1;arcSize=14;strokeWidth=2;fontStyle=0;" vertex="1" parent="WIyWlLk6GJQsqaUBKTNV-1">
          <mxGeometry x="-60" y="210" width="120" height="120" as="geometry" />
        </mxCell>
        <mxCell id="wC1FnH_8r3S7olkzpAsl-43" value="" style="edgeStyle=orthogonalEdgeStyle;rounded=0;orthogonalLoop=1;jettySize=auto;html=1;" edge="1" parent="WIyWlLk6GJQsqaUBKTNV-1" source="wC1FnH_8r3S7olkzpAsl-26" target="wC1FnH_8r3S7olkzpAsl-42">
          <mxGeometry relative="1" as="geometry" />
        </mxCell>
        <mxCell id="wC1FnH_8r3S7olkzpAsl-26" value="Login" style="whiteSpace=wrap;html=1;fontSize=20;fontFamily=Garamond;rounded=1;arcSize=14;strokeWidth=2;fontStyle=0;" vertex="1" parent="WIyWlLk6GJQsqaUBKTNV-1">
          <mxGeometry x="-60" y="430" width="120" height="60" as="geometry" />
        </mxCell>
        <mxCell id="wC1FnH_8r3S7olkzpAsl-32" value="" style="edgeStyle=orthogonalEdgeStyle;rounded=0;orthogonalLoop=1;jettySize=auto;html=1;" edge="1" parent="WIyWlLk6GJQsqaUBKTNV-1" source="wC1FnH_8r3S7olkzpAsl-28" target="wC1FnH_8r3S7olkzpAsl-31">
          <mxGeometry relative="1" as="geometry" />
        </mxCell>
        <mxCell id="wC1FnH_8r3S7olkzpAsl-28" value="Sign Up" style="whiteSpace=wrap;html=1;fontSize=20;fontFamily=Garamond;rounded=1;arcSize=14;strokeWidth=2;fontStyle=0;" vertex="1" parent="WIyWlLk6GJQsqaUBKTNV-1">
          <mxGeometry x="160" y="240" width="120" height="60" as="geometry" />
        </mxCell>
        <mxCell id="wC1FnH_8r3S7olkzpAsl-41" style="edgeStyle=orthogonalEdgeStyle;rounded=0;orthogonalLoop=1;jettySize=auto;html=1;entryX=1;entryY=0.5;entryDx=0;entryDy=0;" edge="1" parent="WIyWlLk6GJQsqaUBKTNV-1" source="wC1FnH_8r3S7olkzpAsl-31" target="wC1FnH_8r3S7olkzpAsl-26">
          <mxGeometry relative="1" as="geometry" />
        </mxCell>
        <mxCell id="wC1FnH_8r3S7olkzpAsl-31" value="Fill Form" style="whiteSpace=wrap;html=1;fontSize=20;fontFamily=Garamond;rounded=1;arcSize=14;strokeWidth=2;fontStyle=0;" vertex="1" parent="WIyWlLk6GJQsqaUBKTNV-1">
          <mxGeometry x="160" y="350" width="120" height="60" as="geometry" />
        </mxCell>
        <mxCell id="wC1FnH_8r3S7olkzpAsl-42" value="Dashboard" style="whiteSpace=wrap;html=1;fontSize=20;fontFamily=Garamond;rounded=1;arcSize=14;strokeWidth=2;fontStyle=0;" vertex="1" parent="WIyWlLk6GJQsqaUBKTNV-1">
          <mxGeometry x="-60" y="570" width="120" height="60" as="geometry" />
        </mxCell>
      </root>
    </mxGraphModel>
  </diagram>
</mxfile>
